<?xml version="1.0" standalone="no"?>
<!DOCTYPE svg PUBLIC "-//W3C//DTD SVG 20010904//EN"
 "http://www.w3.org/TR/2001/REC-SVG-20010904/DTD/svg10.dtd">
<svg version="1.0" xmlns="http://www.w3.org/2000/svg"
 width="288.000000pt" height="288.000000pt" viewBox="0 0 288.000000 288.000000"
 preserveAspectRatio="xMidYMid meet">
<metadata>
Created by potrace 1.14, written by Peter Selinger 2001-2017
</metadata>
<g transform="translate(0.000000,288.000000) scale(0.100000,-0.100000)"
fill="#000000" stroke="none">
<path d="M93 1865 c-36 -16 -88 -79 -78 -95 3 -5 2 -10 -4 -10 -14 0 -14 -417
0 -425 5 -4 7 -10 4 -15 -3 -4 13 -26 35 -48 33 -33 50 -41 88 -45 62 -7 102
-5 102 6 0 4 3 6 8 4 11 -7 73 48 76 68 1 9 7 20 12 23 16 12 16 111 -1 128
-8 9 -15 11 -15 5 0 -7 -8 -7 -23 -2 -28 11 -50 -10 -54 -53 -2 -17 -4 -37 -5
-44 -2 -16 -37 -41 -66 -47 -12 -2 -29 6 -43 22 -23 24 -24 31 -26 206 -2 151
1 185 14 208 20 33 66 43 94 20 23 -19 43 -81 26 -81 -26 0 21 -29 53 -32 47
-6 60 9 54 63 -7 60 -39 113 -83 136 -44 24 -123 28 -168 8z"/>
<path d="M561 1867 c-6 -6 -11 -8 -11 -4 0 9 -59 -21 -75 -37 -18 -20 -37 -70
-41 -111 -2 -22 -6 -46 -9 -52 -2 -7 0 -13 6 -13 6 0 7 -5 3 -12 -9 -14 -9
-103 1 -117 3 -6 0 -11 -7 -11 -9 0 -9 -3 2 -10 8 -5 10 -10 4 -10 -11 0 -11
-87 0 -98 3 -3 -2 -11 -12 -19 -10 -9 -11 -12 -2 -7 9 4 12 3 7 -2 -5 -5 -16
-9 -25 -9 -13 0 -18 -12 -22 -50 -4 -42 -1 -53 16 -71 40 -39 82 -13 85 51 3
74 -3 71 122 70 l112 -1 3 -49 c4 -61 24 -95 52 -90 32 6 48 29 50 71 3 63 1
74 -13 68 -7 -2 -22 4 -32 16 -10 11 -14 20 -9 20 10 0 9 152 0 177 -3 8 -2
12 2 9 4 -2 7 29 7 69 0 40 -3 71 -6 69 -4 -2 -7 8 -8 21 -3 46 -4 55 -11 55
-3 0 -14 14 -24 30 -9 17 -22 28 -27 25 -5 -4 -9 -1 -9 6 0 7 -3 9 -6 6 -4 -3
-16 -1 -27 5 -29 15 -82 19 -96 5z m88 -112 c8 -8 15 -34 15 -59 1 -25 5 -46
9 -46 5 0 5 -5 1 -12 -9 -15 -8 -114 2 -129 4 -8 3 -9 -4 -5 -15 9 -16 -6 -1
-21 15 -15 -21 -26 -86 -27 -58 -2 -68 1 -59 16 10 16 10 78 1 78 -5 0 -5 5
-1 12 9 14 9 103 -1 117 -3 6 -2 11 2 11 5 0 10 12 11 28 4 53 72 76 111 37z"/>
<path d="M890 1870 c0 -5 -7 -7 -15 -4 -9 4 -15 0 -15 -7 -4 -109 0 -622 4
-627 12 -11 36 -10 36 1 0 8 3 8 8 2 13 -18 41 -13 48 9 4 11 7 72 8 135 1
110 2 114 23 117 16 3 26 -4 36 -24 13 -25 29 -72 32 -97 1 -5 4 -17 8 -25 29
-77 41 -116 39 -124 -2 -5 4 -4 12 4 11 9 16 9 16 1 0 -8 5 -9 19 -1 14 7 21
6 23 -2 4 -10 8 -9 19 2 14 15 22 63 9 55 -9 -6 -42 94 -34 106 3 5 1 9 -3 9
-13 0 -45 109 -36 123 4 7 15 18 25 25 10 7 16 18 13 23 -4 5 1 9 9 9 10 0 13
6 10 15 -4 8 -2 15 4 15 6 0 9 8 7 18 -1 9 1 26 5 37 4 11 4 30 -1 43 -5 12
-5 22 0 22 13 0 -27 74 -52 98 -24 23 -122 58 -111 40 4 -6 -1 -6 -13 1 -14 7
-24 7 -33 -2 -10 -9 -11 -9 -6 1 4 6 2 12 -3 12 -6 0 -11 -4 -11 -10 0 -5 -5
-10 -11 -10 -5 0 -8 4 -5 8 6 11 -25 9 -43 -3 -10 -5 -12 -4 -7 3 4 7 2 12 -3
12 -6 0 -11 -4 -11 -10z m175 -110 c11 -8 22 -22 24 -30 8 -31 8 -81 -1 -86
-4 -3 -6 -9 -3 -13 10 -17 -35 -43 -77 -44 l-43 -2 -2 85 c-1 47 0 91 2 98 6
16 74 11 100 -8z"/>
<path d="M1450 1869 c0 -7 -11 -9 -30 -5 -17 3 -30 1 -30 -4 0 -6 -11 -15 -25
-22 -24 -11 -52 -57 -61 -101 -3 -12 -5 -102 -6 -199 -1 -155 -5 -188 -21
-175 -2 1 -12 -4 -21 -12 -13 -11 -14 -16 -4 -22 7 -5 8 -9 3 -9 -12 0 -13
-40 -1 -58 4 -7 4 -12 1 -12 -14 0 26 -31 44 -35 29 -5 54 40 52 92 -1 35 2
43 16 44 10 1 64 2 121 3 75 1 101 -2 98 -11 -3 -6 0 -14 7 -17 9 -3 9 -5 0
-5 -9 -1 -10 -8 -3 -26 7 -18 6 -25 -3 -25 -8 0 -7 -4 3 -10 13 -9 13 -10 0
-11 -9 0 -7 -4 8 -11 12 -6 22 -15 22 -20 0 -14 43 2 57 21 7 9 11 24 9 34 -3
14 0 17 12 12 13 -5 13 -2 -3 15 -12 13 -14 20 -5 20 10 0 9 4 -1 17 -12 14
-12 16 0 8 10 -6 12 -4 7 4 -5 7 -14 10 -22 7 -8 -3 -14 -1 -14 5 0 6 -4 7
-10 4 -6 -4 -9 55 -7 169 1 97 0 176 -3 176 -3 0 -7 8 -8 18 -4 40 -9 53 -31
82 -22 30 -64 55 -88 51 -6 -1 -14 3 -18 9 -5 8 -12 7 -23 -2 -12 -10 -14 -10
-8 0 4 6 2 12 -3 12 -6 0 -11 -5 -11 -11z m71 -117 c12 -14 15 -45 17 -154 0
-76 -2 -138 -6 -139 -4 0 -19 -2 -34 -4 -16 -2 -28 1 -28 7 0 7 -4 7 -12 1 -7
-5 -19 -8 -25 -7 -7 1 -17 2 -22 3 -5 0 -9 63 -8 139 0 124 2 139 20 158 24
25 72 23 98 -4z"/>
<path d="M1820 1869 c0 -5 -4 -9 -10 -9 -20 0 -52 -36 -75 -83 -13 -26 -18
-44 -13 -41 7 5 8 2 3 -6 -10 -15 -10 -334 -1 -349 4 -6 1 -11 -6 -11 -10 0
-10 -2 -1 -8 7 -4 14 -18 16 -30 6 -38 57 -90 103 -102 42 -12 101 -9 139 6
19 8 67 52 73 67 5 15 10 35 17 72 3 17 8 36 10 43 2 6 0 12 -5 12 -5 0 -7 6
-4 13 3 10 -7 13 -40 13 -53 -1 -59 -6 -61 -50 -1 -37 -31 -90 -45 -81 -5 3
-11 1 -15 -4 -8 -13 -54 4 -70 26 -16 21 -19 393 -4 393 6 0 7 5 4 10 -8 14
52 39 77 32 23 -6 52 -47 43 -62 -3 -5 -1 -10 4 -10 6 0 10 -3 10 -7 -6 -36 2
-43 50 -43 l48 0 -3 51 c-2 28 -8 57 -13 63 -6 7 -9 15 -6 17 2 3 -9 20 -25
38 -17 18 -30 30 -30 26 0 -3 -10 1 -22 9 -25 15 -148 20 -148 5z"/>
<path d="M2310 1872 c0 -5 -10 -8 -22 -7 -38 4 -95 -34 -112 -74 -22 -50 -28
-104 -28 -276 1 -144 -3 -179 -17 -157 -12 21 -31 -4 -33 -44 -2 -56 10 -84
39 -95 38 -14 61 15 65 82 l3 54 115 -1 115 0 2 -53 c2 -80 45 -110 91 -65 17
18 16 109 -3 124 -11 9 -15 9 -15 1 0 -8 -4 -8 -14 1 -8 7 -11 17 -8 22 9 16
7 66 -3 66 -7 0 -7 3 0 8 12 9 13 152 1 152 -5 0 -4 6 3 13 8 10 7 17 -2 27
-7 8 -8 10 -1 7 12 -7 13 40 2 59 -3 5 -4 19 -3 32 1 12 -2 22 -6 22 -5 0 -11
11 -15 25 -3 14 -10 25 -16 25 -5 0 -6 6 -2 13 4 6 4 9 -1 5 -4 -4 -13 -4 -19
1 -17 13 -87 41 -82 32 3 -4 -1 -8 -9 -8 -8 0 -12 4 -9 9 3 4 0 8 -5 8 -6 0
-11 -4 -11 -8z m61 -122 c13 -14 16 -38 15 -90 0 -40 3 -70 9 -71 7 0 7 -2 0
-5 -6 -2 -9 -32 -7 -66 l2 -63 -62 0 c-62 0 -91 11 -80 29 9 15 8 126 -2 126
-5 0 -3 7 4 15 10 12 10 15 -1 15 -9 0 -10 3 -4 8 11 8 13 37 3 47 -8 9 10 44
35 67 23 20 66 15 88 -12z"/>
<path d="M2530 1870 c-8 -5 -15 -26 -16 -49 -1 -39 1 -41 30 -42 17 0 45 -2
61 -2 l30 -2 2 -255 c1 -140 3 -265 5 -276 2 -20 19 -26 34 -11 4 3 14 2 23
-3 34 -17 38 2 37 183 -1 112 3 177 9 177 7 0 7 3 0 8 -5 4 -9 36 -9 72 3 121
-4 110 64 110 62 0 65 3 60 45 -5 46 -7 49 -22 44 -21 -6 -37 -5 -33 1 5 9
-41 4 -56 -6 -4 -2 -10 0 -14 6 -3 5 -11 10 -16 10 -6 0 -7 -5 -3 -11 5 -8 1
-8 -13 0 -14 7 -24 7 -33 -2 -10 -9 -11 -9 -6 1 4 6 2 12 -3 12 -6 0 -11 -5
-11 -11 0 -8 -6 -7 -17 2 -15 12 -16 12 -8 -1 7 -12 6 -13 -6 -3 -9 7 -20 8
-29 3 -8 -5 -21 -5 -30 0 -9 5 -22 5 -30 0z"/>
<path d="M1545 1101 c-3 -5 -2 -12 3 -15 5 -3 9 1 9 9 0 17 -3 19 -12 6z"/>
<path d="M2469 1108 c-6 -26 -6 -38 2 -38 5 0 9 6 9 13 0 8 4 7 10 -3 7 -11
10 -11 10 -2 0 10 5 10 23 1 17 -9 19 -9 11 0 -6 7 -18 13 -25 14 -8 2 -20 6
-26 10 -7 5 -13 7 -14 5z"/>
<path d="M16 1084 c-19 -18 -21 -40 -4 -50 8 -5 9 -2 5 11 -8 19 10 48 24 39
5 -3 9 0 9 5 0 16 -16 13 -34 -5z"/>
<path d="M196 1078 c-20 -29 -20 -44 0 -52 15 -6 15 -4 3 10 -11 14 -10 19 9
34 12 10 18 21 13 24 -5 4 -17 -4 -25 -16z"/>
<path d="M342 1087 c-6 -7 -7 -18 -2 -26 4 -8 6 -20 3 -27 -2 -6 1 -15 8 -20
7 -4 10 -3 5 4 -9 15 12 26 27 13 9 -7 13 -5 13 8 0 12 -7 17 -22 15 -13 -1
-25 4 -28 11 -3 9 0 12 10 8 7 -3 14 0 14 7 0 6 4 9 9 5 5 -3 12 -2 15 3 8 13
-41 12 -52 -1z"/>
<path d="M527 1083 c5 -12 3 -14 -8 -8 -8 5 -11 5 -6 -1 5 -5 13 -10 18 -10 5
-1 12 -2 15 -3 4 0 1 -7 -5 -15 -10 -11 -9 -14 3 -12 24 3 28 12 11 26 -8 7
-15 19 -15 26 0 8 -4 14 -10 14 -5 0 -6 -7 -3 -17z"/>
<path d="M646 1092 c-3 -5 1 -9 9 -9 8 0 12 4 9 9 -3 4 -7 8 -9 8 -2 0 -6 -4
-9 -8z"/>
<path d="M1054 1092 c-6 -4 -10 -15 -8 -25 1 -10 -5 -21 -15 -25 -16 -7 -16
-8 1 -24 10 -10 18 -15 19 -10 0 4 2 21 3 37 1 17 6 36 10 43 8 14 6 15 -10 4z"/>
<path d="M1507 1089 c7 -7 15 -10 18 -7 3 3 -2 9 -12 12 -14 6 -15 5 -6 -5z"/>
<path d="M1687 1093 c-8 -13 21 -62 37 -63 5 0 3 6 -3 13 -6 8 -7 18 -3 22 4
5 2 5 -5 1 -7 -4 -13 2 -15 16 -2 16 -6 19 -11 11z"/>
<path d="M1820 1084 c0 -16 2 -16 24 -8 22 8 20 19 -4 21 -11 1 -20 -4 -20
-13z"/>
<path d="M1974 1091 c4 -5 1 -11 -6 -13 -8 -3 -6 -7 5 -11 12 -5 17 -1 17 13
0 11 -5 20 -11 20 -5 0 -8 -4 -5 -9z"/>
<path d="M2171 1078 c-8 -13 -8 -18 -1 -13 7 4 10 1 8 -7 -2 -7 1 -13 6 -13
11 0 15 44 6 50 -3 2 -12 -5 -19 -17z"/>
<path d="M2315 1083 c-5 -10 -9 -22 -11 -28 -1 -5 -5 -19 -10 -30 -5 -14 -4
-17 4 -10 6 6 13 22 16 35 2 14 5 27 5 29 1 2 7 -2 15 -9 8 -6 13 -17 10 -24
-3 -8 1 -16 9 -19 18 -7 17 17 -1 35 -7 7 -12 18 -12 25 0 19 -17 16 -25 -4z"/>
<path d="M2646 1092 c-3 -6 -1 -14 5 -17 15 -10 25 3 12 16 -7 7 -13 7 -17 1z"/>
<path d="M2788 1093 c-8 -16 -3 -38 10 -39 6 -1 19 -2 27 -3 9 0 15 -8 13 -17
-2 -10 3 -19 10 -21 7 -3 12 4 12 15 0 13 -10 24 -31 31 -17 6 -28 15 -25 20
4 5 2 12 -3 15 -5 4 -11 3 -13 -1z"/>
<path d="M2844 1089 c-3 -6 -1 -16 6 -22 10 -9 11 -9 5 2 -4 8 -2 17 6 22 9 6
10 9 2 9 -6 0 -15 -5 -19 -11z"/>
<path d="M715 1080 c-4 -6 -12 -7 -18 -3 -8 5 -8 2 0 -9 7 -8 11 -18 8 -21 -3
-4 -2 -4 3 -1 4 3 7 9 7 12 0 4 4 13 8 20 5 6 6 12 3 12 -3 0 -8 -5 -11 -10z"/>
<path d="M830 1075 c0 -8 5 -15 10 -15 6 0 10 7 10 15 0 8 -4 15 -10 15 -5 0
-10 -7 -10 -15z"/>
<path d="M964 1059 c-1 -22 1 -25 11 -16 9 9 10 14 1 19 -7 5 -6 8 5 8 8 0 21
-6 29 -12 8 -7 7 -4 -3 8 -24 29 -42 26 -43 -7z"/>
<path d="M2104 1049 c0 -21 3 -36 7 -33 5 2 6 11 3 18 -3 8 -1 17 5 21 15 9
14 32 -2 32 -8 0 -13 -14 -13 -38z"/>
<path d="M1483 1053 c1 -18 6 -28 10 -24 4 4 3 18 -2 32 -9 23 -9 22 -8 -8z"/>
<path d="M227 1063 c-10 -9 -9 -33 1 -33 4 0 8 9 8 20 0 23 0 22 -9 13z"/>
<path d="M1255 1060 c-3 -5 2 -10 12 -10 15 0 16 -2 3 -10 -8 -5 -10 -10 -4
-10 16 0 23 10 17 26 -6 16 -19 18 -28 4z"/>
<path d="M2625 1050 c2 -27 10 -33 12 -10 1 11 -2 22 -6 24 -4 3 -7 -4 -6 -14z"/>
<path d="M502 1055 c4 -4 3 -13 -2 -20 -7 -8 -5 -12 5 -12 18 0 20 23 3 33 -7
4 -10 4 -6 -1z"/>
<path d="M798 1048 c8 -10 10 -23 6 -30 -6 -10 -3 -9 9 1 9 7 17 18 17 24 0 6
-3 7 -7 4 -3 -4 -13 -1 -22 6 -14 10 -14 10 -3 -5z"/>
<path d="M1656 1045 c-3 -9 0 -15 9 -15 16 0 20 16 6 24 -5 3 -11 -1 -15 -9z"/>
<path d="M1827 1044 c4 -12 3 -15 -5 -10 -16 10 -15 1 1 -12 10 -8 13 -6 14 8
1 11 -2 22 -8 25 -5 4 -6 -2 -2 -11z"/>
<path d="M2460 1046 c0 -8 5 -18 12 -22 7 -4 8 -3 4 4 -9 15 16 16 31 1 9 -9
11 -7 9 6 -3 23 -56 33 -56 11z"/>
<path d="M2657 1047 c-3 -8 0 -14 7 -14 7 0 13 6 13 14 0 7 -4 13 -8 13 -4 0
-9 -6 -12 -13z"/>
<path d="M666 1037 c3 -8 11 -14 19 -14 11 0 12 4 4 14 -6 7 -15 13 -20 13 -5
0 -6 -6 -3 -13z"/>
<path d="M850 1040 c0 -5 5 -10 11 -10 5 0 7 -5 3 -12 -4 -7 -3 -8 4 -4 6 4 9
13 5 21 -6 17 -23 20 -23 5z"/>
<path d="M1946 1034 c-4 -10 -1 -14 6 -12 15 5 23 28 10 28 -5 0 -13 -7 -16
-16z"/>
<path d="M1990 1039 c0 -4 6 -9 13 -12 8 -3 14 0 14 7 0 7 -6 13 -14 13 -7 0
-13 -4 -13 -8z"/>
<path d="M70 1021 c0 -5 -13 -8 -29 -7 -17 1 -27 -2 -25 -6 8 -12 57 -4 62 10
2 7 1 12 -2 12 -3 0 -6 -4 -6 -9z"/>
<path d="M245 1020 c-3 -5 -1 -10 4 -10 6 0 11 5 11 10 0 6 -2 10 -4 10 -3 0
-8 -4 -11 -10z"/>
<path d="M2685 1021 c-3 -5 -2 -12 3 -15 5 -3 9 1 9 9 0 17 -3 19 -12 6z"/>
<path d="M1510 1010 c-12 -8 -10 -10 8 -10 13 0 20 4 17 10 -7 12 -6 12 -25 0z"/>
</g>
</svg>
